HIERARCHY
ROOT Hips
{
	OFFSET	0.00	0.00	0.00
	CHANNELS 6 Xposition Yposition Zposition Zrotation Xrotation Yrotation
	JOINT LeftUpLeg
	{
		OFFSET	 0.126116	-0.014019	-0.065224
		CHANNELS 3 Zrotation Xrotation Yrotation
		JOINT LeftLeg
		{
			OFFSET	 0.000000	 0.000000	 0.569914
			CHANNELS 3 Zrotation Xrotation Yrotation
			JOINT LeftFoot
			{
				OFFSET	 0.000000	 0.000000	 0.544423
				CHANNELS 3 Zrotation Xrotation Yrotation
				JOINT LeftToeBase
				{
					OFFSET	 0.000000	 0.000000	 0.207117
					CHANNELS 3 Zrotation Xrotation Yrotation
					End Site
					{
						OFFSET	 0.000000	 0.000000	 0.207117
					}
				}
			}
		}
	}
	JOINT RightUpLeg
	{
		OFFSET	-0.124023	-0.008373	-0.065224
		CHANNELS 3 Zrotation Xrotation Yrotation
		JOINT RightLeg
		{
			OFFSET	 0.000000	 0.000000	 0.570047
			CHANNELS 3 Zrotation Xrotation Yrotation
			JOINT RightFoot
			{
				OFFSET	 0.000000	 0.000000	 0.544354
				CHANNELS 3 Zrotation Xrotation Yrotation
				JOINT RightToeBase
				{
					OFFSET	 0.000000	 0.000000	 0.207540
					CHANNELS 3 Zrotation Xrotation Yrotation
					End Site
					{
						OFFSET	 0.000000	 0.000000	 0.207540
					}
				}
			}
		}
	}
	JOINT Spine
	{
		OFFSET	 0.000184	-0.007763	 0.117403
		CHANNELS 3 Zrotation Xrotation Yrotation
		JOINT Spine1
		{
			OFFSET	 0.000000	 0.000000	 0.137269
			CHANNELS 3 Zrotation Xrotation Yrotation
			JOINT Spine2
			{
				OFFSET	 0.000000	 0.000000	 0.156879
				CHANNELS 3 Zrotation Xrotation Yrotation
				JOINT LeftShoulder
				{
					OFFSET	 0.080501	-0.002496	 0.160144
					CHANNELS 3 Zrotation Xrotation Yrotation
					JOINT LeftArm
					{
						OFFSET	 0.000000	 0.000000	 0.164363
						CHANNELS 3 Zrotation Xrotation Yrotation
						JOINT LeftForeArm
						{
							OFFSET	 0.000000	 0.000000	 0.364576
							CHANNELS 3 Zrotation Xrotation Yrotation
							JOINT LeftHand
							{
								OFFSET	 0.000000	 0.000000	 0.360812
								CHANNELS 3 Zrotation Xrotation Yrotation
								JOINT LeftHandIndex1
								{
									OFFSET	 0.000000	 0.000000	 0.086006
									CHANNELS 3 Zrotation Xrotation Yrotation
									JOINT LeftHandIndex2
									{
										OFFSET	 0.000000	 0.000000	 0.047237
										CHANNELS 3 Zrotation Xrotation Yrotation
										JOINT LeftHandIndex3
										{
											OFFSET	-0.004284	-0.000551	 0.038165
											CHANNELS 3 Zrotation Xrotation Yrotation
											End Site
											{
												OFFSET	-0.004284	-0.000551	 0.038165
											}
										}
									}
								}
							}
						}
					}
				}
				JOINT Neck
				{
					OFFSET	 0.000000	 0.000000	 0.176489
					CHANNELS 3 Zrotation Xrotation Yrotation
					JOINT Head
					{
						OFFSET	 0.000000	-0.001747	 0.077940
						CHANNELS 3 Zrotation Xrotation Yrotation
						End Site
						{
							OFFSET	 0.000000	-0.001747	 0.077940
						}
					}
				}
				JOINT RightShoulder
				{
					OFFSET	-0.080363	 0.000306	 0.159706
					CHANNELS 3 Zrotation Xrotation Yrotation
					JOINT RightArm
					{
						OFFSET	 0.000000	 0.000000	 0.164196
						CHANNELS 3 Zrotation Xrotation Yrotation
						JOINT RightForeArm
						{
							OFFSET	 0.000000	 0.000000	 0.365611
							CHANNELS 3 Zrotation Xrotation Yrotation
							JOINT RightHand
							{
								OFFSET	 0.000000	 0.000000	 0.360648
								CHANNELS 3 Zrotation Xrotation Yrotation
								JOINT RightHandIndex1
								{
									OFFSET	 0.000000	 0.000000	 0.069977
									CHANNELS 3 Zrotation Xrotation Yrotation
									JOINT RightHandIndex2
									{
										OFFSET	 0.000000	 0.000000	 0.052305
										CHANNELS 3 Zrotation Xrotation Yrotation
										JOINT RightHandIndex3
										{
											OFFSET	 0.009002	-0.000782	 0.042196
											CHANNELS 3 Zrotation Xrotation Yrotation
											End Site
											{
												OFFSET	 0.009002	-0.000782	 0.042196
											}
										}
									}
								}
							}
						}
					}
				}
			}
		}
	}
}
MOTION
Frames:    13
Frame Time: 0.03333334
-0.703192	-1.649373	 1.270347	-176.561100	 4.349188	-4.168895	-4.797163	-7.487370	-178.904400	-0.750236	-17.428820	 0.360030	-25.296210	 60.437930	 15.988250	-2.385833	 28.452760	 0.000004	-2.749355	-13.210290	-175.600400	-4.523594	-22.303850	 2.428650	 11.102540	 79.691150	-1.765333	 2.384659	 28.388700	-0.000001	-22.417250	 7.888846	 8.533645	-12.763970	-8.029915	-10.648830	 25.012510	-7.102624	 3.281789	-91.776120	 78.527400	 180.000000	-27.243830	 8.812870	 20.748780	-10.583070	-8.516115	-62.371110	 6.815442	-23.346540	-4.870043	-4.131196	 21.524690	 0.986298	-5.167839	 0.733520	 3.519257	-1.378229	 35.397820	-2.634230	 1.631857	 7.218923	 0.255494	-7.292129	-8.816952	-2.798185	 89.782160	 78.203890	 179.999900	-22.844770	-0.338798	-13.426330	 2.329527	-16.960690	 57.747540	 8.079697	 34.830180	 85.916210	 5.715225	 19.176060	-3.692089	 5.027514	 0.245388	-9.378011	-2.350882	 35.473990	 5.254307
-0.701868	-1.647509	 1.269958	-176.445100	 4.376027	-4.422233	-4.697639	-7.692366	-178.885900	-0.766598	-18.408620	 0.374419	-25.891000	 60.567690	 16.813140	-2.385833	 28.452760	 0.000004	-2.184362	-13.847430	-175.224500	-4.525391	-23.152580	 2.515297	 11.309320	 80.759110	-1.879082	 2.384659	 28.388700	-0.000001	-23.014310	 8.012660	 8.931408	-13.210760	-7.726261	-11.135140	 25.049740	-7.183818	 3.479735	-91.776050	 78.527420	 179.999900	-26.601410	 10.709790	 23.781150	-11.444830	-8.740013	-67.685000	 6.594668	-23.545180	-4.813670	-4.131196	 21.524690	 0.986298	-5.167839	 0.733520	 3.519257	-1.378229	 35.397820	-2.634230	 1.617704	 7.456897	 0.361345	-7.220074	-9.097453	-2.820402	 89.782140	 78.203900	 180.000000	-23.345380	 1.073921	-13.766940	 3.111628	-17.602980	 60.675380	 7.841308	 34.923730	 85.336120	 5.715225	 19.176060	-3.692089	 5.027514	 0.245388	-9.378011	-2.350882	 35.473990	 5.254307
-0.688826	-1.627825	 1.266401	-176.043300	 3.918329	-5.533021	-5.187322	-7.530128	 179.862500	 0.425235	-26.077310	 1.045525	-35.697070	 62.502980	 27.622090	-2.385833	 28.452760	 0.000004	 2.319896	-18.256320	-172.375500	-5.647609	-29.082280	 2.558607	 47.752020	 85.535200	-37.590030	 2.384659	 28.388700	-0.000001	-28.478760	 8.069764	 11.015560	-16.795800	 1.085218	-13.095310	 25.879960	-11.462490	 5.914135	-91.776140	 78.527400	 180.000000	-5.561081	 31.982650	 33.986650	-16.438430	-8.197233	-100.056000	 5.470611	-24.775030	-4.518613	-4.131196	 21.524690	 0.986298	-5.167839	 0.733520	 3.519257	-1.378229	 35.397820	-2.634230	 1.434870	 8.004471	 1.086355	-6.920316	-9.341946	-2.737432	 89.782070	 78.203890	-180.000000	-22.033410	 20.716120	-10.270100	 8.388186	-19.678420	 77.398040	-7.599796	 29.928640	 77.808660	 5.715225	 19.176060	-3.692089	 5.027514	 0.245388	-9.378011	-2.350882	 35.473990	 5.254307
-0.679775	-1.612088	 1.264555	-176.059700	 3.818047	-5.654779	-6.522500	-6.226534	 178.414100	 1.796334	-29.258880	 1.834073	-43.902240	 63.071830	 35.849630	-2.385833	 28.452760	 0.000004	 4.448667	-20.861020	-170.679000	-6.452201	-31.475320	 2.325895	 69.994430	 84.386960	-59.776570	 2.384659	 28.388700	-0.000001	-32.132310	 7.265131	 10.889970	-19.177960	 9.173307	-11.777990	 26.709130	-15.939480	 7.228323	-91.776170	 78.527400	 180.000000	 19.064620	 42.156960	 11.878870	-16.598780	-7.467421	-102.309300	 4.986493	-25.391150	-4.400468	-4.131196	 21.524690	 0.986298	-5.167839	 0.733520	 3.519257	-1.378229	 35.397820	-2.634230	 1.406652	 7.972769	 1.316134	-6.814217	-9.150630	-2.673693	 89.782130	 78.203900	 180.000000	-20.972220	 37.698470	-4.103441	 7.666658	-19.232110	 75.178950	-28.046770	 22.404440	 79.968150	 5.715225	 19.176060	-3.692089	 5.027514	 0.245388	-9.378011	-2.350882	 35.473990	 5.254307
-0.663795	-1.580812	 1.263051	-176.285800	 5.446600	-5.138393	-10.011320	-3.943292	 175.749200	 4.155242	-31.390320	 3.189919	-55.614980	 61.810840	 46.921750	-2.385833	 28.452760	 0.000004	 6.165643	-26.148410	-168.405800	-6.689539	-33.254800	 2.311928	 54.001100	 79.215550	-44.899960	 2.384659	 28.388700	-0.000001	-37.341770	 5.386590	 7.015998	-24.094460	 18.820960	-6.026099	 27.672690	-22.058350	 8.037846	-91.776150	 78.527400	 180.000000	 35.400880	 43.348790	-32.949730	-13.024890	-6.119286	-72.502910	 4.210467	-26.402600	-4.240705	-4.131196	 21.524690	 0.986298	-5.167839	 0.733520	 3.519257	-1.378229	 35.397820	-2.634230	 1.643481	 8.177673	 1.192212	-6.611583	-9.714298	-2.709687	 89.782150	 78.203890	 179.999900	-25.215610	 56.130050	 14.489450	-1.090290	-14.150800	 45.366760	-52.356750	-4.707826	 86.346120	 5.715225	 19.176060	-3.692089	 5.027514	 0.245388	-9.378011	-2.350882	 35.473990	 5.254307
-0.642334	-1.543000	 1.262929	-176.470300	 7.175863	-4.132922	-13.596160	-1.154115	 173.613000	 4.442039	-30.975370	 3.300952	-55.743790	 57.967860	 48.133820	-2.385833	 28.452760	 0.000004	 5.955977	-29.738290	-168.176200	-6.410339	-33.266250	 2.466424	 32.541810	 68.792310	-25.851840	 2.384659	 28.388700	-0.000001	-40.386260	 4.749514	 2.463688	-27.568760	 21.455090	-1.115396	 27.730790	-24.691540	 7.510532	-91.776170	 78.527400	 180.000000	 29.677280	 43.810880	-57.721790	-9.935427	-2.680053	-28.847430	 3.771101	-27.350700	-4.266557	-4.131196	 21.524690	 0.986298	-5.167839	 0.733520	 3.519257	-1.378229	 35.397820	-2.634230	 1.937451	 8.324482	 0.713972	-6.517082	-10.010380	-2.342419	 89.782130	 78.203920	 180.000000	-25.228140	 59.362970	 34.942840	-7.311412	-0.144168	 1.457043	-58.834700	-35.355260	 88.172380	 5.715225	 19.176060	-3.692089	 5.027514	 0.245388	-9.378011	-2.350882	 35.473990	 5.254307
-0.615485	-1.502563	 1.263338	-176.107000	 6.227020	-2.735800	-14.330170	 2.865042	 171.641700	 1.859764	-30.060500	 1.911542	-42.446850	 50.981390	 40.269480	-2.385833	 28.452760	 0.000004	 4.251993	-28.576310	-170.653400	-7.480871	-32.584850	 1.843095	 29.934090	 65.774350	-23.250320	 2.384659	 28.388700	-0.000001	-41.636280	 6.611051	 1.269222	-27.533980	 20.670200	-0.218603	 27.447880	-25.383460	 6.674417	-91.776200	 78.527400	-180.000000	 29.397530	 47.226670	-54.918090	-10.236370	-2.944154	-33.124870	 3.420256	-28.497590	-4.355343	-4.131196	 21.524690	 0.986298	-5.167839	 0.733520	 3.519257	-1.378229	 35.397820	-2.634230	 2.371835	 8.562784	 0.070422	-6.336189	-10.416740	-1.629244	 89.782140	 78.203900	 180.000000	-24.081430	 59.160490	 32.844060	-7.316156	-0.128273	 1.753899	-58.003740	-35.097500	 87.888350	 5.715225	 19.176060	-3.692089	 5.027514	 0.245388	-9.378011	-2.350882	 35.473990	 5.254307
-0.585924	-1.460233	 1.263834	-175.780100	 4.671606	-2.030416	-11.940980	 4.843858	 169.523800	 0.853721	-31.098350	 1.450085	-28.577410	 41.574300	 32.717120	-2.385833	 28.452760	 0.000004	 2.690645	-26.353390	-173.144200	-8.298705	-32.777390	 1.409135	 30.910450	 65.655000	-23.800460	 2.384659	 28.388700	-0.000001	-41.949890	 7.900307	 1.590919	-26.782270	 19.701430	-0.504092	 27.269560	-25.666950	 6.328163	-91.776210	 78.527380	-180.000000	 31.565910	 50.822060	-43.683250	-11.472670	-4.353411	-52.826570	 3.256680	-29.471520	-4.535966	-4.131196	 21.524690	 0.986298	-5.167839	 0.733520	 3.519257	-1.378229	 35.397820	-2.634230	 2.498200	 8.853515	-0.062222	-6.321342	-10.658840	-1.952432	 89.782100	 78.203890	 180.000000	-25.679860	 58.798820	 23.336650	-5.163402	-6.801287	 21.822430	-55.402200	-22.323560	 87.004260	 5.715225	 19.176060	-3.692089	 5.027514	 0.245388	-9.378011	-2.350882	 35.473990	 5.254307
-0.555608	-1.416650	 1.264118	-175.859300	 4.294392	-1.070085	-9.180757	 2.403586	 166.084000	 0.082746	-37.048340	 1.226318	-17.762210	 34.132040	 28.225810	-2.385833	 28.452760	 0.000004	 0.179734	-26.221330	-176.237900	-8.158937	-35.110310	 1.577503	 32.559180	 66.927360	-25.550610	 2.384659	 28.388700	-0.000001	-42.559080	 8.527702	-0.462684	-27.215850	 19.275660	 0.082127	 27.528610	-26.321370	 7.320698	-91.776150	 78.527380	 180.000000	 32.187610	 52.118590	-40.736240	-11.375250	-4.541957	-53.875080	 3.757839	-29.773330	-4.957163	-4.131196	 21.524690	 0.986298	-5.167839	 0.733520	 3.519257	-1.378229	 35.397820	-2.634230	 2.249883	 8.605915	-0.512191	-7.089962	-10.564730	-3.260699	 89.782150	 78.203920	 180.000000	-26.672030	 59.663410	 23.325820	-3.933924	-6.390720	 22.515440	-53.885940	-21.501410	 86.764460	 5.715225	 19.176060	-3.692089	 5.027514	 0.245388	-9.378011	-2.350882	 35.473990	 5.254307
-0.526703	-1.376869	 1.264344	-176.544800	 4.082896	 0.343489	-7.433816	-2.010779	 162.385200	-0.488837	-45.030900	 1.035371	-11.743370	 31.710300	 25.801140	-2.385833	 28.452760	 0.000004	-2.464958	-25.816300	 179.856200	-7.781360	-37.770490	 1.911536	 33.913880	 69.111560	-26.804230	 2.384659	 28.388700	-0.000001	-42.460270	 9.479449	-3.073771	-27.551490	 18.829290	 0.085168	 27.972770	-26.913170	 8.936054	-91.776110	 78.527380	 180.000000	 34.045700	 51.959040	-38.983360	-10.992300	-4.705404	-52.648600	 4.740511	-29.578470	-5.559753	-4.131196	 21.524690	 0.986298	-5.167839	 0.733520	 3.519257	-1.378229	 35.397820	-2.634230	 1.830664	 8.299017	-1.082541	-8.054502	-10.396630	-4.524945	 89.782090	 78.203890	-180.000000	-26.802150	 61.068560	 23.970980	-3.428562	-5.516491	 20.924170	-52.688930	-22.275150	 86.723840	 5.715225	 19.176060	-3.692089	 5.027514	 0.245388	-9.378011	-2.350882	 35.473990	 5.254307
-0.490592	-1.329894	 1.264526	-178.093000	 2.901310	 2.391089	-5.597315	-7.027722	 158.216800	-1.766978	-54.514950	 0.150749	-10.237060	 35.930120	 24.717950	-2.385833	 28.452760	 0.000004	-3.764506	-22.919410	 175.119500	-7.996604	-38.925190	 1.825343	 36.732750	 71.808290	-28.757840	 2.384659	 28.388700	-0.000001	-40.965490	 11.822060	-4.966118	-27.295590	 18.305330	-0.189259	 28.145820	-27.984530	 9.688930	-91.776180	 78.527380	-180.000000	 36.590480	 52.789380	-38.032420	-10.118700	-5.123953	-50.105110	 5.918962	-29.414520	-6.425354	-4.131196	 21.524690	 0.986298	-5.167839	 0.733520	 3.519257	-1.378229	 35.397820	-2.634230	 1.482727	 8.621221	-1.402869	-8.558744	-10.475730	-4.858842	 89.782110	 78.203890	 180.000000	-26.067130	 62.319900	 22.413500	-3.432206	-5.629390	 21.803640	-50.585180	-22.805610	 87.982600	 5.715225	 19.176060	-3.692089	 5.027514	 0.245388	-9.378011	-2.350882	 35.473990	 5.254307
-0.442366	-1.268205	 1.264814	-179.338500	 1.916270	 3.715852	-5.135623	-15.803910	 155.034300	-6.117915	-67.115740	-3.838936	-11.085820	 45.868730	 22.882180	-2.385833	 28.452760	 0.000004	-4.655698	-17.978490	 170.764400	-8.334430	-37.915520	 1.577382	 35.740630	 74.101600	-26.355760	 2.384659	 28.388700	-0.000001	-39.007790	 13.007960	-6.116878	-25.957030	 17.396230	-1.071861	 28.369720	-27.994920	 10.777220	-91.776070	 78.527400	 179.999900	 37.876810	 55.324440	-36.783990	-8.979549	-5.233799	-45.604120	 6.241389	-30.084060	-7.230450	-4.131196	 21.524690	 0.986298	-5.167839	 0.733520	 3.519257	-1.378229	 35.397820	-2.634230	 1.445523	 8.696649	-2.025919	-8.885960	-10.851200	-4.701685	 89.782130	 78.203890	 180.000000	-25.231110	 63.273280	 20.607310	-3.722483	-6.019610	 23.370950	-45.288380	-22.940440	 90.757180	 5.715225	 19.176060	-3.692089	 5.027514	 0.245388	-9.378011	-2.350882	 35.473990	 5.254307
-0.416913	-1.232674	 1.265305	-179.984400	 1.502476	 4.391495	-5.182672	-20.391420	 154.110600	-9.952676	-71.951680	-7.611622	-12.408540	 51.340570	 22.169380	-2.385833	 28.452760	 0.000004	-4.704821	-15.170510	 168.710200	-8.767781	-36.991100	 1.283494	 33.629140	 74.767770	-23.365840	 2.384659	 28.388700	-0.000001	-38.132980	 13.538030	-6.749438	-25.290990	 16.873670	-1.517055	 28.459770	-27.863880	 11.289300	-91.776250	 78.527420	-179.999900	 39.220940	 56.189950	-36.437600	-9.530818	-4.247635	-43.425900	 5.571099	-31.135010	-7.194869	-4.131196	 21.524690	 0.986298	-5.167839	 0.733520	 3.519257	-1.378229	 35.397820	-2.634230	 1.415784	 8.764500	-2.125295	-8.936367	-11.089610	-4.705526	 89.782160	 78.203930	 179.999900	-24.728820	 63.065190	 20.095380	-3.496817	-6.117998	 24.375270	-42.193500	-21.860320	 92.547950	 5.715225	 19.176060	-3.692089	 5.027514	 0.245388	-9.378011	-2.350882	 35.473990	 5.254307
